<mxfile host="app.diagrams.net" modified="2024-01-11T09:08:59.101Z" agent="Mozilla/5.0 (Windows NT 10.0; Win64; x64) AppleWebKit/537.36 (KHTML, like Gecko) Chrome/120.0.0.0 Safari/537.36" version="22.1.18" etag="R6pS_Ce4kMOC-C7Kthf-" type="github">
  <diagram name="Page-1" id="sUV39Y-pabZd-tev6RyL">
    <mxGraphModel>
      <root>
        <mxCell id="0" />
        <mxCell id="1" parent="0" />
      </root>
    </mxGraphModel>
  </diagram>
</mxfile>
